<svg width="38" height="38" viewBox="0 0 38 38" fill="none" xmlns="http://www.w3.org/2000/svg">
<path d="M30.8034 9.51249C30.8034 10.666 29.865 11.6044 28.7115 11.6044C27.5579 11.6044 26.6196 10.666 26.6196 9.51249C26.6196 8.35913 27.5579 7.42065 28.7115 7.42065C29.8649 7.42065 30.8034 8.35904 30.8034 9.51249Z" fill="#2C3333"/>
<path d="M19.1731 10.1721C14.233 10.1721 10.2139 14.1911 10.2139 19.1312C10.2139 24.0712 14.2329 28.0903 19.1731 28.0903C24.1132 28.0903 28.1323 24.0712 28.1323 19.1312C28.1323 14.1911 24.1131 10.1721 19.1731 10.1721ZM19.1731 24.9581C15.9601 24.9581 13.3461 22.3441 13.3461 19.1312C13.3461 15.9183 15.9601 13.3043 19.1731 13.3043C22.3859 13.3043 24.9998 15.9184 24.9998 19.1312C24.9998 22.3441 22.3859 24.9581 19.1731 24.9581Z" fill="#2C3333"/>
<path d="M26.328 0.88623H11.7167C5.6848 0.88623 0.777588 5.79355 0.777588 11.8253V26.4371C0.777588 32.469 5.68489 37.3762 11.7167 37.3762H26.328C32.3601 37.3762 37.2676 32.469 37.2676 26.4371V11.8253C37.2676 5.79355 32.3601 0.88623 26.328 0.88623ZM33.9319 26.4371C33.9319 30.6298 30.5208 34.0406 26.328 34.0406H11.7167C7.52419 34.0406 4.11321 30.6297 4.11321 26.4371V11.8253C4.11321 7.63285 7.52419 4.22213 11.7167 4.22213H26.328C30.5207 4.22213 33.9319 7.63285 33.9319 11.8253V26.4371Z" fill="#2C3333"/>
</svg>
