<svg width="43" height="43" viewBox="0 0 43 43" fill="none" xmlns="http://www.w3.org/2000/svg">
<path d="M4.76875 4.65833L4.05825 3.9692L4.06667 3.96107L4.76875 4.65833ZM4.76875 38.3417L4.06495 39.0373L4.05665 39.029L4.76875 38.3417ZM39.1687 38.3417L39.8793 39.0308L39.8709 39.039L39.1687 38.3417ZM39.1687 4.65833L39.8725 3.96264L39.8809 3.97088L39.1687 4.65833ZM8.71541 13.8364L7.71561 13.8565C7.71011 13.5933 7.81299 13.3391 8.00109 13.1512C8.18919 12.9632 8.44663 12.8572 8.71541 12.8572V13.8364ZM23.7821 30.1298H24.7821C24.7821 30.6705 24.3343 31.109 23.7821 31.109V30.1298ZM23.7821 24.3069H22.7821C22.7821 24.0304 22.9015 23.7668 23.1109 23.5811C23.3203 23.3955 23.6001 23.3052 23.8813 23.3326L23.7821 24.3069ZM30.6755 30.1298V31.109C30.2407 31.109 29.8559 30.834 29.7233 30.4286L30.6755 30.1298ZM35.4087 30.1298L36.3741 29.8742C36.4553 30.1684 36.3921 30.4829 36.2029 30.7249C36.0135 30.967 35.7201 31.109 35.4087 31.109V30.1298ZM28.5687 21.9569L28.1231 22.8336C27.7973 22.6746 27.5851 22.3548 27.5697 21.9986C27.5541 21.6424 27.7377 21.3061 28.0487 21.1207L28.5687 21.9569ZM34.4087 13.8233V12.8442C34.7091 12.8442 34.9935 12.9764 35.1835 13.2042C35.3735 13.432 35.4487 13.7314 35.3885 14.0195L34.4087 13.8233ZM30.1155 13.8233L29.1531 13.5574C29.2747 13.1355 29.6677 12.8442 30.1155 12.8442V13.8233ZM23.7821 20.2727L23.8881 21.2464C23.6061 21.276 23.3245 21.1867 23.1135 21.001C22.9025 20.8152 22.7821 20.5506 22.7821 20.2727H23.7821ZM23.7821 13.8364V12.8572C24.3343 12.8572 24.7821 13.2956 24.7821 13.8364H23.7821ZM19.4755 13.8364H18.4755C18.4755 13.2956 18.9231 12.8572 19.4755 12.8572V13.8364ZM19.4755 25.1165H20.4755C20.4755 25.4178 20.3335 25.7026 20.0909 25.8882C19.8481 26.0737 19.5317 26.1395 19.2329 26.0662L19.4755 25.1165ZM13.3021 13.8364V12.8572C13.8469 12.8572 14.2914 13.2842 14.3019 13.8176L13.3021 13.8364ZM0.96875 20.7167C0.96875 16.3118 0.96665 12.9118 1.32759 10.2712C1.69237 7.60253 2.44409 5.56479 4.05825 3.9692L5.47919 5.34741C4.29337 6.51959 3.64513 8.07872 3.30991 10.531C2.97085 13.0115 2.96875 16.2568 2.96875 20.7167H0.96875ZM0.96875 22.2833V20.7167H2.96875V22.2833H0.96875ZM4.05665 39.029C2.44405 37.4275 1.69239 35.3879 1.32759 32.7189C0.96665 30.0785 0.96875 26.6817 0.96875 22.2833H2.96875C2.96875 26.7366 2.97085 29.9786 3.30991 32.4592C3.64509 34.9113 4.29345 36.475 5.48085 37.6543L4.05665 39.029ZM21.1687 42.0625C16.6702 42.0625 13.1978 42.0647 10.5011 41.7112C7.77557 41.354 5.69449 40.6178 4.06495 39.0373L5.47249 37.6461C6.66961 38.8072 8.26191 39.4419 10.7664 39.7701C13.2996 40.102 16.6139 40.1042 21.1687 40.1042V42.0625ZM22.7687 42.0625H21.1687V40.1042H22.7687V42.0625ZM39.8709 39.039C38.2353 40.618 36.1521 41.354 33.4265 41.7112C30.7297 42.0647 27.2607 42.0625 22.7687 42.0625V40.1042C27.3169 40.1042 30.6279 40.102 33.1611 39.7701C35.6655 39.4419 37.2623 38.807 38.4667 37.6443L39.8709 39.039ZM42.9687 22.2833C42.9687 26.6882 42.9709 30.0883 42.6099 32.7287C42.2451 35.3975 41.4935 37.4352 39.8793 39.0308L38.4583 37.6525C39.6441 36.4805 40.2925 34.9212 40.6277 32.469C40.9667 29.9884 40.9687 26.7432 40.9687 22.2833H42.9687ZM42.9687 20.7167V22.2833H40.9687V20.7167H42.9687ZM39.8809 3.97088C41.4935 5.57244 42.2451 7.61217 42.6099 10.281C42.9709 12.9216 42.9687 16.3183 42.9687 20.7167H40.9687C40.9687 16.2633 40.9667 13.0213 40.6277 10.5408C40.2925 8.08867 39.6441 6.52506 38.4567 5.34579L39.8809 3.97088ZM22.7687 0.9375C27.2673 0.9375 30.7397 0.935444 33.4365 1.28886C36.1619 1.64604 38.2429 2.38208 39.8725 3.96264L38.4651 5.35397C37.2679 4.19286 35.6757 3.55812 33.1711 3.22989C30.6379 2.89789 27.3235 2.89583 22.7687 2.89583V0.9375ZM21.1687 0.9375H22.7687V2.89583H21.1687V0.9375ZM4.06667 3.96107C5.70231 2.38207 7.78543 1.64608 10.5111 1.28886C13.2078 0.935444 16.6768 0.9375 21.1687 0.9375V2.89583C16.6207 2.89583 13.3096 2.89789 10.7764 3.22989C8.27207 3.55808 6.67519 4.19294 5.47083 5.3556L4.06667 3.96107ZM23.2487 31.109C18.4443 31.109 14.5698 29.4896 11.8848 26.4413C9.21973 23.4156 7.82537 19.095 7.71561 13.8565L9.71521 13.8163C9.81879 18.7611 11.1311 22.5871 13.3993 25.1623C15.6477 27.7148 18.9333 29.1506 23.2487 29.1506V31.109ZM23.2621 31.109H23.2487V29.1506H23.2621V31.109ZM23.7821 31.109H23.2621V29.1506H23.7821V31.109ZM24.7821 24.3069V30.1298H22.7821V24.3069H24.7821ZM29.7233 30.4286C28.8073 27.6319 26.5599 25.5618 23.6829 25.2813L23.8813 23.3326C27.6975 23.7049 30.5169 26.4391 31.6277 29.8307L29.7233 30.4286ZM35.4087 31.109H30.6755V29.1506H35.4087V31.109ZM33.6571 24.7046C34.9257 26.2204 35.8517 27.9823 36.3741 29.8742L34.4435 30.3854C33.9949 28.7607 33.1997 27.2475 32.1101 25.946L33.6571 24.7046ZM29.0143 21.0803C30.8061 21.9536 32.3885 23.1889 33.6571 24.7046L32.1101 25.946C31.0207 24.6443 29.6619 23.5835 28.1231 22.8336L29.0143 21.0803ZM33.1727 19.0493C32.0887 20.559 30.6985 21.8335 29.0889 22.7933L28.0487 21.1207C29.4235 20.3009 30.6107 19.2123 31.5365 17.9231L33.1727 19.0493ZM35.3885 14.0195C35.0109 15.8275 34.2565 17.5397 33.1727 19.0493L31.5365 17.9231C32.4623 16.6337 33.1065 15.1713 33.4291 13.6271L35.3885 14.0195ZM30.1155 12.8442H34.4087V14.8025H30.1155V12.8442ZM23.6761 19.2992C24.6691 19.1954 25.8141 18.5617 26.8587 17.485C27.8901 16.4219 28.7323 15.0167 29.1531 13.5574L31.0779 14.0893C30.5651 15.8677 29.5541 17.5502 28.3089 18.8337C27.0767 20.1037 25.5219 21.0758 23.8881 21.2464L23.6761 19.2992ZM24.7821 13.8364V20.2727H22.7821V13.8364H24.7821ZM19.4755 12.8572H23.7821V14.8156H19.4755V12.8572ZM18.4755 25.1165V13.8364H20.4755V25.1165H18.4755ZM14.3019 13.8176C14.4432 21.0155 17.6396 23.6577 19.7179 24.1665L19.2329 26.0662C15.9779 25.2696 12.4542 21.5928 12.3023 13.8552L14.3019 13.8176ZM8.71541 12.8572H13.3021V14.8156H8.71541V12.8572Z" fill="#2C3333"/>
</svg>
