<svg width="1303" height="605" viewBox="0 0 1303 605" fill="none" xmlns="http://www.w3.org/2000/svg">
<path d="M710.008 444.497L643.061 475.613" stroke="#AFAFAF" stroke-width="24"/>
<path d="M692.092 493.529L660.976 426.582" stroke="#AFAFAF" stroke-width="24"/>
<path d="M718.515 445.034L651.568 476.15" stroke="#01A1AD" stroke-width="24"/>
<path d="M700.6 494.066L669.484 427.118" stroke="#01A1AD" stroke-width="24"/>
<path d="M1255.44 20.3667L1296.79 46.9877" stroke="#AFAFAF" stroke-width="21"/>
<path d="M1289.42 13L1262.8 54.3544" stroke="#AFAFAF" stroke-width="21"/>
<path d="M1255.44 13.3667L1296.79 39.9877" stroke="#01A1AD" stroke-width="21"/>
<path d="M1289.42 6L1262.8 47.3544" stroke="#01A1AD" stroke-width="21"/>
<path d="M3.9082 581.569L36.7842 591.003" stroke="#AFAFAF" stroke-width="13.3752"/>
<path d="M25.063 569.848L15.6294 602.724" stroke="#AFAFAF" stroke-width="13.3752"/>
<path d="M2 577.753L34.876 587.187" stroke="#01A1AD" stroke-width="13.3752"/>
<path d="M23.1548 566.032L13.7212 598.908" stroke="#01A1AD" stroke-width="13.3752"/>
<path d="M541.652 95.9524L573.709 165.314" stroke="#AFAFAF" stroke-width="29.5553"/>
<path d="M592.361 114.605L523 146.661" stroke="#AFAFAF" stroke-width="29.5553"/>
<path d="M550.414 93.032L582.47 162.393" stroke="#01A1AD" stroke-width="29.5553"/>
<path d="M601.123 111.684L531.761 143.741" stroke="#01A1AD" stroke-width="29.5553"/>
</svg>
