<svg width="83" height="82" viewBox="0 0 83 82" fill="none" xmlns="http://www.w3.org/2000/svg">
<path d="M61.7466 53.0763C58.5116 53.2284 55.4353 52.4068 53.346 50.8419L53.3427 50.8396C52.9164 50.5196 52.5323 50.1689 52.1959 49.7899C52.1925 49.7876 52.1903 49.7853 52.1892 49.7831C52.1404 49.7275 52.0915 49.6718 52.0449 49.6151L52.0438 49.614C52.0238 49.5901 52.0038 49.5663 51.9849 49.5413C51.885 49.4176 51.7896 49.2917 51.6996 49.1612C51.8617 49.6957 51.975 50.212 52.0449 50.7091C52.1259 51.2878 52.1481 51.8405 52.1182 52.3671C51.7629 58.6835 43.9185 61.1461 40.931 57.9561C40.7512 57.7428 40.6091 57.5181 40.5047 57.2922C40.4969 57.2741 40.4936 57.265 40.4936 57.265C40.2727 56.7725 40.2361 56.2743 40.3993 55.8771C40.5969 55.3937 41.0887 55.0589 41.9024 55.0623C43.7619 54.7502 44.2327 52.4556 42.7628 51.8564C41.4606 50.9304 40.3571 49.9056 39.5589 48.7265C39.3446 48.4122 39.1525 48.0853 38.9849 47.7472C38.9605 47.6984 38.9338 47.6507 38.905 47.6042C38.7107 47.2853 38.4209 47.0322 38.0723 46.9096C37.3641 46.6589 36.5214 46.9199 35.9408 47.9787C35.4768 48.8275 35.4046 49.8375 35.6988 50.7511C35.7121 50.7919 35.7266 50.8328 35.741 50.8736C35.7765 50.9712 35.8165 51.0677 35.8598 51.1619C36.2328 51.971 36.769 52.8051 37.4173 53.6585C38.1478 54.6197 38.603 55.7772 38.6541 56.9938C38.754 59.4144 37.5017 61.7919 34.8806 62.3434C34.8795 62.3275 34.8784 62.3116 34.8762 62.2957C34.8196 61.6023 34.663 60.9317 34.4199 60.2995C33.8126 58.7187 32.6625 57.3853 31.1605 56.5637C30.8385 56.3878 30.521 56.2187 30.2179 56.0451C29.3431 55.5435 28.5904 55.0112 28.2196 54.2112C28.143 54.3439 28.0631 54.471 27.9809 54.5959C25.0079 59.1227 19.0374 58.4157 16.5773 55.5242C15.9556 54.7933 15.5582 53.9229 15.4894 52.9629C15.4316 52.2876 15.5315 51.5398 15.7691 50.9724C15.9567 50.5241 16.2321 50.1905 16.5829 50.0963C16.594 50.0929 16.604 50.0895 16.6151 50.0883C16.9514 50.0112 17.3555 50.153 17.8207 50.6172C19.144 51.8848 20.8226 51.1312 20.837 48.4519V45.2744C20.8004 45.3232 20.7615 45.372 20.7216 45.4185C20.7216 45.4185 20.7171 45.4242 20.7094 45.4344C20.5484 45.6216 20.3641 45.7918 20.1609 45.9428C17.1957 48.1648 10.175 46.5669 11.646 40.078L11.6471 40.0768C11.7159 39.7727 11.8036 39.4572 11.9113 39.1315C12.16 38.3802 13.1436 38.2418 13.5888 38.8921C13.7442 39.119 13.9129 39.3335 14.095 39.5219C14.9931 40.4479 16.2232 40.7452 17.8118 38.7774C18.8465 37.2556 20.0699 36.4295 21.7984 36.4737C22.4334 36.4907 23.1384 36.6247 23.9266 36.8857C21.7807 33.8977 21.3366 28.4505 25.3332 24.9325C23.7723 10.7289 39.7565 -2.10038 53.2805 0.962531C54.0587 1.13843 54.817 1.37221 55.5486 1.65932H55.5497C59.7839 3.31618 63.1632 6.74791 64.703 11.1908C67.4629 19.1516 64.1857 28.1236 57.528 30.8336C57.528 32.2612 57.2549 33.6423 56.5488 35.0609L56.5477 35.0631C56.4411 35.2787 56.3235 35.4955 56.1958 35.7134C56.2113 35.7372 56.2269 35.7599 56.2424 35.7826C56.2458 35.7872 56.2491 35.7917 56.2524 35.7962C58.3073 38.7502 62.0974 38.1226 63.3797 36.1821C63.5262 35.9619 63.6395 35.7259 63.715 35.4751L63.7161 35.4705C63.7882 35.2265 63.8249 34.9701 63.8182 34.7034C63.8104 34.3255 63.7172 33.9272 63.5229 33.5186C63.1532 32.8071 63.1055 32.0876 63.3963 31.6552C63.6328 31.3 64.0957 31.1377 64.7907 31.3273C64.8418 31.3409 64.8928 31.3568 64.9428 31.3738C65.4368 31.5417 65.872 31.8595 66.2195 32.2601C68.7274 35.1516 68.3488 39.2711 65.9508 42.2114C65.7133 42.5031 65.4557 42.7823 65.1793 43.0489C64.3078 43.8865 63.2487 44.5855 62.0264 45.0735C61.8743 45.1348 61.7189 45.1915 61.5612 45.246C62.2717 45.2982 62.9878 45.2607 63.715 45.0633C64.8151 44.7659 65.9386 44.1043 67.0999 42.8435C67.3485 42.5735 67.6827 42.4418 68.0157 42.4418C68.3965 42.4429 68.7762 42.62 69.0193 42.9638C71.6171 46.6441 68.1456 52.6678 61.7466 53.0763Z" fill="#01A1AD"/>
<path d="M28.2196 54.2112C24.6305 60.3768 15.8357 57.8291 15.4894 52.9629C15.4316 52.2877 15.5316 51.5398 15.7691 50.9724C16.1655 50.5389 16.4807 50.2041 16.5829 50.0963C16.6062 50.0714 16.6184 50.0589 16.6184 50.0589C16.6173 50.0691 16.6162 50.0782 16.6151 50.0884C16.2521 52.972 18.3203 54.6618 20.4241 54.4734C22.3158 54.3032 23.5259 52.6043 23.6913 50.6694C23.9266 47.9311 24.7215 45.894 25.9627 44.4131C25.3332 48.7255 26.5322 52.3524 28.2196 54.2112Z" fill="#21BDCF"/>
<g opacity="0.6">
<path d="M21.7983 36.4734C20.4153 37.2691 19.2925 38.2031 18.6903 39.4155C18.2951 40.2111 17.5993 40.8239 16.7504 41.0311C15.6911 41.2896 14.5436 40.933 13.9839 39.6146C13.9839 39.6146 14.025 39.5805 14.0949 39.5215C14.993 40.4476 16.2231 40.7449 17.8117 38.7771C18.8464 37.2553 20.0698 36.4291 21.7983 36.4734Z" fill="white"/>
</g>
<g opacity="0.6">
<path d="M25.1073 37.8952C23.0899 39.0364 21.9753 41.6538 21.0723 44.617C21.0268 41.6644 21.5328 38.9776 23.9268 37.2007L25.1071 37.8954L25.1073 37.8952Z" fill="white"/>
</g>
<path d="M24.2142 37.1558C21.1002 39.2756 21.078 42.0685 20.856 45.0939C20.6295 45.4083 20.3975 45.6897 20.161 45.9428C17.057 48.2692 9.50673 46.4081 11.9114 39.1315C11.7459 40.2482 12.15 41.2843 12.8694 42.0355C14.6135 43.8581 17.7286 43.4677 18.8321 41.1821C20.6339 37.4531 22.5001 37.4372 24.2142 37.1558Z" fill="#21BDCF"/>
<path d="M61.5611 45.2462C58.7212 45.4028 57.6943 42.5794 55.0854 41.1892C65.6298 44.15 68.1021 35.0611 63.3962 31.6555C63.3962 31.6555 64.0134 31.534 64.9426 31.374C65.4366 31.542 65.8718 31.8597 66.2193 32.2603C69.8573 36.4547 67.4205 43.2342 61.5611 45.2462Z" fill="#21BDCF"/>
<path d="M34.8807 62.3438C34.8796 62.3279 34.8785 62.312 34.8763 62.2961C34.8197 61.6027 34.6632 60.932 34.42 60.2999C36.5094 59.9232 36.1019 56.5096 34.2146 53.2276C32.1886 49.3885 33.4098 45.3882 36.2685 43.998C34.9363 46.6365 34.7398 49.1899 35.7411 50.874C35.7766 50.9716 35.8166 51.0681 35.8599 51.1623C36.2329 51.9714 36.7691 52.8055 37.4175 53.6589C38.148 54.6201 38.6031 55.7776 38.6542 56.9942C38.7541 59.4148 37.5018 61.7922 34.8807 62.3438Z" fill="#21BDCF"/>
<g opacity="0.6">
<path d="M28.8511 41.3187L30.0463 40.9561C25.2611 44.0151 26.212 52.1525 31.3785 56.3065C29.9511 55.8505 28.6171 54.9175 27.4428 53.1705C25.148 48.1979 24.7273 43.918 28.8511 41.3187Z" fill="white"/>
</g>
<path d="M46.454 55.1471C45.2883 58.1544 41.1529 57.8139 40.3991 55.8768C40.5967 55.3933 41.0885 55.0586 41.9023 55.062C43.7618 54.7499 44.2325 52.4552 42.7627 51.8561C41.4604 50.93 40.3569 49.9053 39.5587 48.7262C38.3864 46.0571 38.9315 44.0541 40.0983 42.749C39.1324 45.291 41.4305 47.4302 43.371 48.2813C45.4959 49.1733 47.5641 51.8561 46.454 55.1471Z" fill="#21BDCF"/>
<path d="M61.7465 53.0764C57.7499 53.2637 53.9954 51.9665 52.0448 49.6152L52.0437 49.614L51.6995 49.1612C51.0667 46.9188 49.0507 45.1053 47.2034 43.6573C49.7079 43.3566 52.6709 47.0334 56.1957 48.4803C63.6216 51.8621 68.6851 47.6292 68.0156 42.4419C68.3964 42.443 68.7761 42.6201 69.0192 42.9639C71.617 46.6442 68.1455 52.6679 61.7465 53.0764Z" fill="#21BDCF"/>
<g opacity="0.6">
<path d="M60.6674 4.91402C58.8345 3.4569 56.6775 2.41058 54.335 1.87948C40.811 -1.18344 24.8268 11.6458 26.3877 25.8494C22.9395 28.8851 22.7974 33.3575 24.2029 36.4465H23.6345C21.7483 33.387 21.5252 28.2848 25.3331 24.9325C23.7722 10.7289 39.7563 -2.10038 53.2804 0.962531C56.0891 1.59917 58.6314 2.978 60.6674 4.91402Z" fill="white"/>
</g>
<g opacity="0.6">
<path d="M13.9839 39.4014C14.2348 39.432 14.4768 39.5659 14.6433 39.8088C14.7066 39.9007 14.771 39.9903 14.8376 40.0766C14.5234 39.9268 14.2392 39.6885 13.9839 39.4014Z" fill="white"/>
</g>
<path d="M34.8807 62.8545C34.7737 62.8545 34.6684 62.8193 34.5812 62.7526C34.4666 62.6649 34.3944 62.5313 34.3827 62.3856L34.3789 62.3388C34.1917 60.085 32.9006 58.0947 30.9245 57.0142L30.6832 56.8827C29.7357 56.3675 28.8292 55.8746 28.2188 55.139C27.3102 56.4143 26.1044 57.3535 24.6943 57.8762C23.253 58.4105 21.602 58.4974 20.0449 58.1213C17.1911 57.432 15.1604 55.3739 14.9912 52.9998C14.8806 51.7081 15.2689 50.1507 16.2259 49.6874C16.6498 49.4823 17.331 49.414 18.1698 50.2521C18.5977 50.662 19.0673 50.8046 19.4498 50.6364C19.9994 50.3949 20.3311 49.5771 20.3371 48.4491V46.4366C18.6319 47.6171 15.8613 47.748 13.7491 46.5966C12.518 45.9255 9.82847 43.8388 11.4382 38.9683C11.613 38.4392 12.0583 38.0613 12.6003 37.9816C13.1465 37.902 13.6814 38.1383 13.9974 38.5995C14.4974 39.3294 15.005 39.7098 15.5056 39.73C16.0747 39.7547 16.7159 39.3285 17.4136 38.4683C18.823 36.4063 20.5322 35.6414 22.8512 36.0772C22.098 34.5903 21.7306 32.8297 21.8274 31.0791C21.9237 29.3374 22.5241 26.8424 24.8093 24.7241C24.2056 18.3772 26.9588 11.8971 32.3913 6.90402C38.4195 1.36377 46.465 -1.10381 53.3887 0.4643C58.91 1.71489 63.3156 5.66093 65.1736 11.0203C66.5475 14.9834 66.5266 19.2946 65.115 23.1598C63.7383 26.9291 61.2271 29.763 58.0223 31.177C57.9739 32.8018 57.5787 34.249 56.7916 35.6816C58.2297 37.5568 60.5184 37.6653 62.0138 36.7776C62.9552 36.2186 63.7277 35.1303 63.0769 33.7503C62.5964 32.82 62.5829 31.876 63.0423 31.285C63.273 30.9884 63.8236 30.5353 64.9196 30.8338C65.5446 31.004 66.1232 31.3801 66.5928 31.9216C68.2572 33.8404 68.8271 36.4151 68.1564 38.9857C67.6257 41.0198 66.4174 42.7999 64.749 44.0984C65.3798 43.7545 66.0451 43.2434 66.7356 42.4937C67.0944 42.104 67.6019 41.9011 68.1275 41.9356C68.6488 41.9704 69.1215 42.2364 69.4246 42.6656C70.5861 44.3111 70.7069 46.4341 69.7557 48.4904C68.699 50.7751 66.0484 53.3135 61.7776 53.5863C58.1262 53.757 54.726 52.7177 52.5701 50.8622C52.741 52.3078 52.5679 53.6666 52.0512 54.9197C51.4177 56.4551 50.2905 57.7432 48.7913 58.6449C45.9077 60.3792 42.3734 60.235 40.5701 58.3097C40.5641 58.3033 40.5585 58.297 40.5528 58.2904C39.8429 57.4502 39.6109 56.4038 39.9617 55.6247C40.2654 54.9504 40.9553 54.5611 41.8585 54.5522C42.6552 54.4027 43.0682 53.811 43.1243 53.2835C43.1468 53.0733 43.1381 52.5599 42.5775 52.3312C42.5422 52.3169 42.5084 52.2982 42.4773 52.276C40.5994 50.9403 39.3114 49.5347 38.5396 47.9786C38.4008 47.699 38.1708 47.4854 37.9083 47.3924C37.3368 47.1901 36.7786 47.495 36.3772 48.2287C35.9291 49.0476 35.9045 50.0631 36.3113 50.9453C36.6483 51.6761 37.139 52.4612 37.8115 53.3457C38.6357 54.4297 39.0995 55.6839 39.1528 56.9731C39.2547 59.4366 38.0045 62.2076 34.9813 62.8449C34.9477 62.852 34.914 62.8554 34.8805 62.8554L34.8807 62.8545ZM28.2197 53.7002C28.2275 53.7002 28.2355 53.7002 28.2432 53.7007C28.4275 53.7095 28.5923 53.8216 28.6711 53.9921C29.0672 54.8469 30.0335 55.3723 31.1525 55.9808L31.3959 56.1133C33.5087 57.2688 34.9422 59.3299 35.309 61.6994C37.5096 60.9557 38.2274 58.7645 38.1548 57.0153C38.1102 55.9395 37.7187 54.887 37.0229 53.9717C36.3048 53.0273 35.7764 52.1795 35.4078 51.3799C34.8636 50.1999 34.9002 48.8354 35.5055 47.7292C36.2722 46.3281 37.4183 46.1372 38.2354 46.4264C38.7478 46.6077 39.1726 46.9947 39.431 47.5161C40.1202 48.906 41.2897 50.1788 43.0049 51.406C43.7753 51.7481 44.2107 52.5214 44.1179 53.3934C44.02 54.313 43.322 55.3414 41.9835 55.5661C41.956 55.5706 41.9269 55.572 41.9005 55.5729C41.5324 55.5759 41.0492 55.653 40.8698 56.0511C40.6864 56.4585 40.8596 57.0847 41.3012 57.6124C42.7957 59.1955 45.7952 59.2616 48.2851 57.7641C51.1959 56.0135 52.2941 52.8539 51.2226 49.3118C51.1499 49.0719 51.2587 48.8139 51.479 48.7029C51.699 48.5919 51.9657 48.6611 52.1076 48.8661C53.7984 51.308 57.5736 52.7601 61.7241 52.5661C65.5524 52.3214 67.9181 50.0744 68.8529 48.0535C69.6438 46.3435 69.5569 44.5975 68.6149 43.2629C68.487 43.0818 68.2858 42.9695 68.0631 42.9545C67.836 42.9395 67.6175 43.0264 67.4638 43.1935C65.6993 45.1098 63.8134 45.9241 61.5262 45.7553C61.2889 45.7378 61.0964 45.5514 61.0666 45.3102C61.0366 45.0689 61.1776 44.8394 61.4032 44.7618C64.2575 43.7818 66.4756 41.4676 67.1921 38.7222C67.7749 36.4887 67.2844 34.2567 65.8461 32.5989C65.5071 32.2081 65.0981 31.9389 64.6631 31.8204C64.4289 31.7566 64.0083 31.6847 63.8254 31.9201C63.6615 32.1307 63.6353 32.6459 63.9646 33.2796C63.9675 33.285 63.9701 33.2905 63.9728 33.2962C64.7606 34.9544 64.1889 36.6673 62.5165 37.6605C60.5668 38.818 57.5447 38.6303 55.7842 36.0018C55.6739 35.837 55.6677 35.6217 55.7682 35.4503C56.6284 33.9864 57.0292 32.5192 57.0292 30.8333C57.0292 30.6243 57.154 30.4361 57.3438 30.359C63.7448 27.7534 66.8997 19.0533 64.2328 11.3612C62.4907 6.33615 58.3565 2.63524 53.1736 1.46136C46.5596 -0.0368428 38.8526 2.33973 33.0605 7.66345C27.7952 12.5026 25.1601 18.776 25.8304 24.8752C25.8488 25.043 25.7851 25.2091 25.6599 25.3192C21.6793 28.8231 22.4861 34.0156 24.3303 36.5835C24.4587 36.7622 24.4596 37.005 24.3326 37.1845C24.2056 37.3643 23.9798 37.4399 23.7737 37.3716C21.225 36.5282 19.6166 37.0198 18.2227 39.0686C18.2149 39.0802 18.2067 39.0913 18.198 39.102C17.2863 40.2318 16.3665 40.7856 15.4672 40.75C14.6382 40.7166 13.8686 40.19 13.1798 39.1848C13.0797 39.0386 12.9165 38.9669 12.7433 38.9921C12.6618 39.0041 12.464 39.0575 12.3856 39.2947C11.0699 43.2759 12.9702 45.0135 14.2203 45.6949C16.3274 46.8436 19.2924 46.4949 20.4412 44.9631C20.5713 44.7893 20.7954 44.7198 20.9981 44.7902C21.2008 44.8606 21.3371 45.0551 21.3371 45.2739V48.4514C21.3287 50.0238 20.7851 51.1611 19.8455 51.5742C19.0921 51.9054 18.2078 51.687 17.48 50.9898C17.279 50.7891 16.9158 50.4837 16.6542 50.6105C16.2628 50.8 15.8946 51.8271 15.9879 52.9181C16.1258 54.8523 17.8483 56.5409 20.2754 57.1272C22.6766 57.7073 25.9119 57.1771 27.7907 53.9497C27.8811 53.7944 28.0445 53.7002 28.2199 53.7002H28.2197Z" fill="black"/>
<path d="M57.0283 30.8331C57.0476 30.3596 56.985 29.8338 56.8758 29.3281C56.765 28.8197 56.6051 28.3178 56.395 27.8394C56.185 27.361 55.9246 26.9048 55.6073 26.4924C55.2904 26.0802 54.9152 25.713 54.484 25.4197L54.4813 25.4179C54.4047 25.3657 54.3839 25.2599 54.4349 25.1816C54.4825 25.1085 54.5766 25.0856 54.651 25.1251C55.1448 25.3897 55.5931 25.7443 55.9827 26.1555C56.3731 26.567 56.7066 27.033 56.9877 27.5289C57.269 28.0253 57.4981 28.5514 57.6775 29.0984C57.8538 29.6486 57.9879 30.2094 58.0274 30.8331C58.0452 31.115 57.836 31.3585 57.5603 31.3767C57.2843 31.3948 57.0463 31.181 57.0285 30.8991C57.0274 30.881 57.0272 30.8633 57.0278 30.8456L57.0283 30.8331Z" fill="black"/>
<path d="M56.5396 36.0839C55.6766 36.8442 54.6877 37.4375 53.6505 37.8531C52.6125 38.2716 51.5332 38.522 50.4548 38.6797C50.3636 38.6931 50.2792 38.6284 50.2661 38.5351C50.2539 38.448 50.3092 38.3667 50.3909 38.3456C51.4307 38.0803 52.4447 37.7271 53.3757 37.2328C54.3073 36.741 55.1482 36.1046 55.8518 35.3429C56.0414 35.1375 56.3582 35.1284 56.559 35.3222C56.7599 35.5163 56.7688 35.8399 56.5792 36.0451C56.5674 36.0578 56.5552 36.0698 56.5425 36.081L56.5394 36.0837L56.5396 36.0839Z" fill="black"/>
<path d="M24.2701 36.5145C24.8445 37.1448 25.4515 37.7251 26.1616 38.1489C26.869 38.5774 27.6867 38.8348 28.524 39.0345H28.5247C28.6144 39.0561 28.6701 39.1478 28.6492 39.2395C28.6299 39.3241 28.5522 39.379 28.4698 39.3704C28.0342 39.3248 27.5968 39.2644 27.1596 39.1693C26.7231 39.0742 26.2855 38.9428 25.8649 38.7585C25.444 38.5758 25.0414 38.3457 24.6629 38.0883C24.2838 37.8309 23.9273 37.5483 23.5835 37.2567C23.3708 37.0762 23.3413 36.7535 23.518 36.5361C23.6946 36.3186 24.0103 36.2884 24.223 36.4691C24.239 36.4827 24.2539 36.497 24.2676 36.512L24.2699 36.5147L24.2701 36.5145Z" fill="black"/>
<path d="M39.1884 26.1914C39.6722 25.3276 40.4162 24.633 41.24 24.0983C42.0699 23.5663 43.0042 23.1972 43.9832 23.0252C44.9588 22.8538 45.9995 22.8913 46.9575 23.2467C47.4347 23.4231 47.885 23.6805 48.2733 24.0077C48.6596 24.3373 48.9891 24.7286 49.2218 25.168C49.2662 25.2517 49.2358 25.3566 49.1537 25.402C49.0895 25.4374 49.0129 25.4263 48.9614 25.3795L48.9592 25.3773C48.6181 25.0672 48.2662 24.7946 47.8847 24.5858C47.5062 24.3736 47.1065 24.2181 46.6946 24.1128C45.8705 23.9027 44.9994 23.8943 44.1417 24.0275C43.2831 24.163 42.4385 24.444 41.6425 24.8366C40.8452 25.2295 40.1016 25.7443 39.4539 26.3963L39.4515 26.3988C39.3855 26.4653 39.2792 26.4644 39.2141 26.397C39.1602 26.341 39.1517 26.2565 39.1881 26.1914H39.1884Z" fill="black"/>
<path d="M31.4735 29.388C31.4824 29.5753 31.4524 29.7705 31.3803 29.9623C31.3403 30.0576 31.2937 30.1529 31.2304 30.2403C31.1649 30.3277 31.0883 30.4094 30.9995 30.4809C30.9007 30.5547 30.7886 30.6159 30.6687 30.6568C30.6198 30.8304 30.5499 31.0018 30.4555 31.1618C30.329 31.382 30.1558 31.5794 29.9537 31.7315C29.5485 32.0424 29.0401 32.1695 28.5605 32.1366C28.0775 32.106 27.6157 31.9176 27.2394 31.6225C26.8597 31.3286 26.5799 30.9269 26.3879 30.499C26.3823 30.4866 26.3779 30.4741 26.3746 30.4616L26.3723 30.4537C26.268 30.0939 26.2025 29.7069 26.2358 29.3029C26.2535 29.1009 26.2968 28.8967 26.3701 28.6981C26.4434 28.5006 26.5533 28.3122 26.691 28.1477C26.8286 27.982 26.9929 27.8424 27.1716 27.7323C27.4248 27.578 27.7456 27.5519 28.0154 27.6552C28.1519 27.7062 28.2763 27.7879 28.3784 27.8923C28.4039 27.9184 28.4284 27.9479 28.4506 27.974L28.4894 28.0228L28.5671 28.1204L28.8769 28.512C29.0845 28.773 29.2898 29.0351 29.4908 29.3007C29.6007 29.4437 29.6662 29.5435 29.7594 29.6354C29.8494 29.7262 29.946 29.8057 30.047 29.8601C30.2512 29.968 30.4533 29.9963 30.6442 29.9146C30.7408 29.8749 30.8352 29.8011 30.9207 29.7001C31.0051 29.598 31.0783 29.4709 31.146 29.329L31.1494 29.3211C31.1905 29.2337 31.2926 29.1974 31.3781 29.2405C31.4358 29.2689 31.4702 29.3268 31.4735 29.388Z" fill="black"/>
<path d="M27.3579 24.3461C27.768 24.1902 28.2036 24.1226 28.6486 24.1266C29.0929 24.1325 29.5505 24.219 29.9839 24.4124C30.4155 24.603 30.822 24.9158 31.0951 25.3268C31.3702 25.7347 31.5095 26.222 31.4706 26.6864C31.4624 26.7853 31.3771 26.8589 31.2803 26.8502C31.2315 26.8459 31.1888 26.8216 31.1598 26.7858L31.1482 26.7715C31.0803 26.6873 31.0239 26.6038 30.9688 26.5223C30.9055 26.4451 30.8476 26.3691 30.7923 26.2946C30.7275 26.2261 30.6715 26.1548 30.6109 26.0897L30.5163 25.9964C30.4852 25.9655 30.4586 25.9317 30.4231 25.9058C30.1666 25.6757 29.8886 25.4914 29.5738 25.3386C29.2596 25.1863 28.9117 25.072 28.5438 24.9725C28.1752 24.8718 27.7875 24.7935 27.3792 24.6859L27.3754 24.685C27.2824 24.6605 27.2264 24.5636 27.2504 24.4685C27.2651 24.4103 27.3073 24.3659 27.3583 24.3461H27.3579Z" fill="black"/>
<path d="M29.3453 30.3862C29.1366 30.713 28.6892 30.7947 28.3429 30.5677C27.9943 30.3396 27.881 29.8857 28.0897 29.5543C28.1619 29.4386 28.2629 29.3535 28.3784 29.3013C28.5216 29.484 28.667 29.6644 28.8147 29.8437L28.9823 30.048C29.0478 30.1229 29.1178 30.1955 29.1932 30.2625C29.2421 30.3056 29.2921 30.3476 29.3453 30.3862Z" fill="white"/>
<path d="M47.5587 29.0714C47.541 29.5105 47.4344 29.9452 47.2545 30.3424C46.8948 31.1379 46.2332 31.7779 45.435 32.1002C45.0386 32.2625 44.6046 32.3419 44.1838 32.3419C43.7686 32.3408 43.3556 32.2818 42.956 32.149C42.5585 32.0185 42.1689 31.8245 41.8269 31.5249C41.7403 31.4545 41.6626 31.366 41.5827 31.2831C41.5083 31.1912 41.4328 31.1004 41.3718 30.9949C41.304 30.8962 41.2541 30.7815 41.2019 30.6692L41.1797 30.6056C41.1131 30.5943 41.0476 30.5795 40.9832 30.5625C40.7689 30.5058 40.5669 30.4207 40.3826 30.3151C40.014 30.1052 39.7098 29.8124 39.4923 29.4708C39.4423 29.3914 39.4645 29.2847 39.5422 29.2325C39.6033 29.1916 39.681 29.1973 39.7365 29.2404L39.7431 29.2461C40.0118 29.4583 40.3238 29.6013 40.6335 29.6626C40.7878 29.6921 40.9421 29.7023 41.0887 29.691C41.1631 29.6864 41.2352 29.6762 41.304 29.6592L41.3562 29.6478L41.3629 29.6467C41.3629 29.6467 41.3784 29.6456 41.3862 29.6444H41.3995C41.4317 29.632 41.4661 29.6229 41.5017 29.6183C41.7736 29.5809 42.039 29.4651 42.2821 29.2881C42.4053 29.1996 42.5197 29.0997 42.6329 28.9817L44.2271 27.3521L44.2504 27.3271L44.2837 27.2965C44.327 27.2533 44.3725 27.2114 44.4203 27.1739C44.5135 27.0956 44.6168 27.0298 44.7222 26.9685C44.9365 26.8528 45.1719 26.7744 45.415 26.7427C45.6581 26.7132 45.9112 26.7291 46.1521 26.7971C46.3942 26.8686 46.6162 26.9833 46.8116 27.1421C47.007 27.2999 47.1735 27.5019 47.2889 27.722C47.4055 27.9411 47.4799 28.1748 47.5176 28.4029C47.5376 28.5176 47.5509 28.631 47.5554 28.7423C47.5565 28.8512 47.5587 28.9613 47.5587 29.0714Z" fill="black"/>
<path d="M43.0582 31.1017C42.8406 31.0109 42.6396 30.894 42.4776 30.7499C42.4198 30.7056 42.3787 30.6523 42.3299 30.6035C42.2955 30.5592 42.2577 30.5172 42.23 30.4718C42.4576 30.3811 42.6696 30.2608 42.8594 30.1223C43.0337 29.9964 43.1969 29.8511 43.339 29.7047L43.9152 29.1157C44.5713 29.7637 44.4281 30.8225 43.0582 31.1017Z" fill="white"/>
<path d="M27.1244 30.2245L27.1094 30.1797C27.1115 30.1864 27.1147 30.192 27.1179 30.1987C27.1201 30.2077 27.1222 30.2156 27.1244 30.2245Z" fill="#822C44"/>
<path d="M37.8739 33.6985C38.09 33.5946 38.3265 33.5585 38.5669 33.5721C38.8069 33.5868 39.0509 33.6595 39.2696 33.785C39.4886 33.9094 39.6789 34.0889 39.8092 34.3006C39.94 34.512 40.0201 34.7489 40.0166 35.0002C40.0155 35.0828 39.9488 35.1486 39.868 35.1475C39.8396 35.147 39.8134 35.1384 39.7912 35.1239L39.7854 35.12C39.5925 34.9924 39.4439 34.8699 39.2987 34.7621C39.1537 34.6547 39.0212 34.5567 38.8793 34.4682C38.7379 34.3794 38.588 34.3 38.4224 34.2208C38.2567 34.14 38.076 34.0657 37.8757 33.9632L37.8708 33.9607C37.8005 33.9246 37.7718 33.837 37.8071 33.765C37.822 33.7346 37.846 33.7119 37.8739 33.6983V33.6985Z" fill="black"/>
<path d="M39.4129 34.6816C39.1851 35.0677 38.8947 35.4118 38.5587 35.6925C38.223 35.9738 37.8427 36.191 37.4428 36.3346C37.0429 36.4788 36.6246 36.5491 36.2125 36.5509C35.8 36.5532 35.3945 36.4874 35.0104 36.3705C34.922 36.3437 34.8719 36.2486 34.8981 36.1583C34.922 36.0759 35.0013 36.026 35.0821 36.038L35.0846 36.0384C35.4518 36.0931 35.8211 36.0963 36.1765 36.0414C36.532 35.9869 36.8728 35.8741 37.1806 35.7084C37.7985 35.3789 38.2734 34.8348 38.5267 34.2095C38.6327 33.9481 38.9262 33.8239 39.182 33.9322C39.4377 34.0407 39.5592 34.3405 39.4533 34.602C39.444 34.6251 39.4331 34.6471 39.4209 34.668L39.4131 34.6812L39.4129 34.6816Z" fill="black"/>
<path d="M61.3385 45.7626C59.5228 45.7626 58.366 44.6391 57.2458 43.5508C56.5335 42.859 55.7973 42.1436 54.8547 41.6413C54.61 41.5111 54.515 41.2026 54.6427 40.9525C54.7701 40.7024 55.0719 40.6052 55.3166 40.7357C56.3836 41.3043 57.2074 42.1046 57.9341 42.8104C59.0902 43.9335 60.0037 44.8207 61.5346 44.7356C61.8093 44.7197 62.0455 44.9362 62.0604 45.2179C62.0752 45.4995 61.8641 45.7401 61.5885 45.7553C61.5037 45.7601 61.4205 45.7624 61.3385 45.7624V45.7626Z" fill="black"/>
<path d="M50.5869 40.919C51.2485 40.7059 51.9204 40.493 52.6429 40.3938C53.0033 40.345 53.3758 40.3285 53.7486 40.3562C54.1216 40.3839 54.4924 40.4542 54.8512 40.5554L54.8932 40.5729L55.3646 40.7493C55.6246 40.8466 55.758 41.141 55.663 41.4068C55.5677 41.6726 55.2798 41.809 55.0198 41.7118C54.994 41.7023 54.9669 41.6891 54.9438 41.6757L54.5078 41.4215L54.5497 41.439C54.2564 41.3085 53.9549 41.2048 53.6434 41.1358C53.3321 41.0668 53.0108 41.0339 52.6824 41.0309C52.025 41.025 51.3449 41.1335 50.6655 41.25H50.6646C50.5738 41.2656 50.4876 41.203 50.4723 41.1101C50.4583 41.025 50.5085 40.9442 50.5867 40.9193L50.5869 40.919Z" fill="black"/>
<path d="M29.2048 41.3474C28.6728 41.6066 28.197 41.9659 27.7934 42.3942C27.3857 42.8163 27.058 43.3091 26.8082 43.8345C26.5602 44.3617 26.3966 44.9264 26.3133 45.5C26.2747 45.7875 26.2558 46.0769 26.2549 46.3659C26.2631 46.6659 26.2618 46.9705 26.2873 47.2708C26.3013 47.5724 26.3404 47.8713 26.369 48.1709C26.4112 48.4685 26.4487 48.7667 26.5089 49.0604C26.6217 49.6485 26.7609 50.2304 26.9505 50.7931C27.3258 51.9161 27.858 52.9865 28.5858 53.8632L28.5907 53.8691C28.7692 54.0843 28.7434 54.4066 28.533 54.5891C28.3325 54.7629 28.0354 54.7459 27.8535 54.5578C27.389 54.0752 27.0111 53.5246 26.6939 52.9483C26.3775 52.3707 26.1257 51.7631 25.9238 51.1424C25.7262 50.52 25.5804 49.8838 25.4829 49.2422C25.4296 48.9217 25.4003 48.599 25.367 48.2769C25.345 47.9539 25.3252 47.6312 25.325 47.3082C25.3146 46.985 25.3319 46.6643 25.3403 46.3402C25.3563 46.0047 25.4045 45.672 25.4696 45.3443C25.5368 45.0165 25.6325 44.6961 25.7467 44.3835C25.8623 44.0714 26.0093 43.7725 26.1714 43.4847C26.3324 43.1958 26.5249 42.9264 26.7332 42.6733C26.9405 42.4194 27.1712 42.186 27.4192 41.9768C27.9099 41.5557 28.477 41.2221 29.0852 41.0292C29.1731 41.0013 29.2668 41.0517 29.2941 41.1415C29.319 41.2237 29.2803 41.3104 29.2066 41.346L29.2055 41.3465L29.2048 41.3474Z" fill="black"/>
<path d="M20.8558 45.6049C20.8432 45.6049 20.8305 45.6044 20.8179 45.6035C20.5428 45.5824 20.3365 45.3373 20.3571 45.0561C20.3693 44.8899 20.3809 44.7245 20.3924 44.5597C20.5974 41.635 20.791 38.8724 23.9368 36.7312C24.1663 36.5748 24.4765 36.6386 24.6295 36.8732C24.7825 37.1079 24.7201 37.425 24.4905 37.5814C21.7524 39.445 21.5839 41.849 21.3889 44.6328C21.3774 44.7987 21.3656 44.9653 21.3534 45.1326C21.3336 45.4008 21.1147 45.6051 20.8558 45.6051V45.6049Z" fill="black"/>
<path d="M12.291 44.7334C12.6241 44.456 13.0146 44.2318 13.4518 44.1392C13.6694 44.0934 13.8976 44.082 14.1217 44.1179C14.3455 44.1517 14.5642 44.2432 14.7463 44.3775C14.9303 44.511 15.0704 44.6939 15.1612 44.8877C15.2529 45.082 15.2978 45.2872 15.3113 45.4867C15.338 45.8875 15.2496 46.2657 15.1253 46.617C15.1459 46.4304 15.1588 46.2448 15.1508 46.0614C15.1417 45.8784 15.1157 45.6989 15.0655 45.5319C14.9681 45.1973 14.7574 44.9213 14.4911 44.8167C14.228 44.705 13.9307 44.7454 13.671 44.8716C13.4087 44.9983 13.1818 45.2098 12.9984 45.4549L12.2912 44.7334H12.291Z" fill="black"/>
<path d="M16.4009 46.9533C16.3636 46.3371 16.5134 45.7086 16.8323 45.2048C17.148 44.7 17.6132 44.3121 18.1471 44.1155C18.4136 44.018 18.6991 43.9696 18.9818 43.9891C19.2642 44.0077 19.5413 44.1062 19.768 44.2669C19.996 44.4274 20.1692 44.6473 20.288 44.8847C20.4077 45.1228 20.4776 45.3773 20.5222 45.6317C20.4374 45.3875 20.3286 45.1537 20.1821 44.9524C20.0364 44.7513 19.851 44.587 19.6419 44.4875C19.4332 44.3877 19.2047 44.3489 18.9822 44.3722C18.7595 44.3952 18.5439 44.4712 18.3496 44.5824C17.9598 44.806 17.6558 45.1689 17.4906 45.5706C17.3227 45.9742 17.2992 46.4118 17.3911 46.8189L16.4006 46.9535L16.4009 46.9533Z" fill="black"/>
<path d="M26.846 55.9546C26.6537 55.8039 26.4592 55.6584 26.2467 55.5485C26.036 55.4373 25.8162 55.3501 25.5922 55.3018C25.1439 55.2031 24.6856 55.2789 24.327 55.5088C23.9665 55.7344 23.6996 56.0932 23.5663 56.4804C23.4329 56.8688 23.4462 57.2828 23.5945 57.5896L22.6507 57.9249C22.5674 57.6119 22.5574 57.2903 22.6034 56.9902C22.6496 56.6895 22.749 56.4076 22.8878 56.155C23.1669 55.6518 23.6003 55.2541 24.1099 55.0487C24.619 54.8379 25.193 54.8604 25.6643 55.0576C26.1406 55.2532 26.5252 55.5862 26.8458 55.9546H26.846Z" fill="black"/>
<path d="M17.4905 56.3947C17.7775 56.0227 18.1792 55.7209 18.6282 55.5967C19.0751 55.4689 19.5458 55.5127 19.9408 55.6932C20.3365 55.8709 20.6631 56.1925 20.8218 56.5813C20.9861 56.9699 20.9682 57.3961 20.8456 57.7574C20.888 57.3746 20.8076 56.9887 20.6031 56.7048C20.4031 56.4181 20.0962 56.2384 19.7821 56.1773C19.4672 56.1142 19.1462 56.1687 18.8926 56.3133C18.6366 56.4572 18.4503 56.6864 18.3271 56.9526L17.4902 56.3945L17.4905 56.3947Z" fill="black"/>
<path d="M35.3276 49.6594C35.1791 49.7139 35.0354 49.7783 34.9062 49.8602C34.7792 49.9435 34.6677 50.0436 34.5829 50.1612C34.4084 50.3925 34.366 50.7125 34.4774 51.013C34.5873 51.3126 34.8389 51.5707 35.1495 51.7121C35.461 51.8569 35.8305 51.8793 36.182 51.797C35.848 51.9329 35.4624 51.9769 35.0938 51.8725C34.7281 51.7706 34.382 51.5266 34.1775 51.1612C34.0767 50.9792 34.0132 50.7672 34.0065 50.5457C33.9978 50.3242 34.0536 50.0983 34.1533 49.9007C34.253 49.7021 34.3935 49.5309 34.55 49.3886C34.7081 49.2481 34.8815 49.1349 35.0596 49.0361L35.3274 49.6596L35.3276 49.6594Z" fill="black"/>
<path d="M37.3314 53.4027C37.0924 53.5954 36.8924 53.8757 36.7661 54.1962C36.6399 54.516 36.5835 54.8778 36.6359 55.2232C36.687 55.5668 36.866 55.8912 37.1799 56.0743C37.3349 56.1662 37.5183 56.2207 37.7088 56.2414C37.8998 56.2625 38.0971 56.252 38.2941 56.225C38.1074 56.2931 37.9126 56.3474 37.7081 56.3689C37.5045 56.3905 37.2896 56.3775 37.0816 56.309C36.8737 56.2416 36.6766 56.1168 36.518 55.9502C36.3591 55.784 36.237 55.5807 36.1559 55.3648C35.9927 54.9311 35.9663 54.4572 36.0418 53.9985C36.1191 53.5398 36.3027 53.0856 36.6111 52.6943L37.3311 53.4025L37.3314 53.4027Z" fill="black"/>
<path d="M38.5262 58.2546C38.2975 58.1588 38.056 58.1275 37.823 58.201C37.5921 58.2723 37.3712 58.453 37.246 58.7067C37.1192 58.9577 37.0874 59.2748 37.1942 59.5699C37.2979 59.8674 37.5404 60.1212 37.8315 60.2998C37.5095 60.1983 37.186 60.0095 36.9735 59.6895C36.7595 59.374 36.6822 58.9468 36.7724 58.544C36.8583 58.1409 37.1112 57.7589 37.4829 57.5183C37.6676 57.3978 37.8797 57.3149 38.0977 57.2741C38.3162 57.2326 38.5389 57.2321 38.7538 57.26L38.5262 58.2546Z" fill="black"/>
<g opacity="0.3">
<path d="M35.1937 49.3477C33.2607 50.2153 34.5032 52.3384 36.1822 51.7969L35.1937 49.3477Z" fill="black"/>
</g>
<g opacity="0.3">
<path d="M36.9712 53.0488C35.824 54.2676 36.151 56.7904 38.2941 56.2252L36.9712 53.0488Z" fill="black"/>
</g>
<g opacity="0.3">
<path d="M38.6398 57.757C37.0174 57.3689 36.1966 59.5653 37.8312 60.2997L38.6398 57.757Z" fill="black"/>
</g>
<path d="M39.804 49.1621C40.03 48.9576 40.296 48.8075 40.5689 48.7183C40.8424 48.6282 41.1219 48.5958 41.3919 48.6064C41.9313 48.631 42.4426 48.8123 42.8589 49.1407C43.0647 49.3064 43.2448 49.5184 43.3549 49.7712C43.4131 49.8956 43.442 50.0338 43.4575 50.1691C43.4573 50.2379 43.4624 50.3062 43.454 50.3729C43.4426 50.4392 43.4398 50.5068 43.4171 50.569C43.3474 50.8239 43.2053 51.0359 43.0445 51.2141C42.8831 51.3938 42.6917 51.5339 42.5017 51.6671C42.666 51.5005 42.8263 51.3305 42.9462 51.1353C43.0665 50.9424 43.1538 50.7308 43.1718 50.5216C43.1817 50.4698 43.1724 50.4176 43.1731 50.3673C43.1706 50.3166 43.1562 50.2674 43.1491 50.2188C43.1185 50.1239 43.0832 50.0327 43.025 49.9528C42.9153 49.7908 42.7585 49.6607 42.5816 49.5656C42.2254 49.377 41.8014 49.315 41.4208 49.372C41.0376 49.4276 40.7094 49.6142 40.5167 49.8779L39.804 49.1623V49.1621Z" fill="black"/>
<path d="M43.1563 51.7677C43.4422 51.696 43.7549 51.6622 44.0713 51.721C44.3865 51.777 44.6916 51.9377 44.9116 52.1638C45.1355 52.3885 45.276 52.666 45.3522 52.9466C45.4283 53.2282 45.443 53.5188 45.3968 53.7991C45.3522 54.0785 45.2378 54.3526 45.0489 54.5671C44.8626 54.7832 44.6017 54.923 44.341 54.9641C44.079 55.0077 43.8244 54.9677 43.5892 54.8989C43.3512 54.8338 43.1347 54.7196 42.9233 54.6064C43.1516 54.6811 43.3801 54.7532 43.6134 54.7737C43.8441 54.7989 44.0775 54.79 44.2813 54.7162C44.6967 54.573 44.9125 54.1624 44.8994 53.7505C44.8959 53.3415 44.7029 52.9289 44.4196 52.7421C44.1401 52.551 43.8124 52.5809 43.4744 52.7362L43.156 51.7682L43.1563 51.7677Z" fill="black"/>
<path d="M43.2966 54.4834C43.3937 54.84 43.4354 55.2242 43.3581 55.6073C43.3326 55.7031 43.3193 55.7969 43.2771 55.8886L43.2209 56.0243C43.2003 56.0685 43.1718 56.1103 43.1472 56.1525C43.0495 56.323 42.9025 56.4589 42.7522 56.5676C42.4351 56.7737 42.0826 56.8141 41.7675 56.7932C41.4484 56.7685 41.154 56.6727 40.8716 56.5679C41.1727 56.5906 41.4726 56.5974 41.7531 56.5384C42.0308 56.4787 42.2839 56.355 42.4354 56.1727C42.5839 55.9875 42.6316 55.7649 42.6119 55.5381C42.5926 55.3105 42.5002 55.0799 42.3728 54.8724L43.2966 54.4836V54.4834Z" fill="black"/>
<g opacity="0.3">
<path d="M40.1602 49.5198C41.5412 48.0826 44.8368 49.804 42.5013 51.6669L40.1602 49.5198Z" fill="black"/>
</g>
<g opacity="0.3">
<path d="M43.3155 52.2514C45.7048 51.4303 45.9665 56.0245 42.9236 54.6058L43.3155 52.2514Z" fill="black"/>
</g>
<g opacity="0.3">
<path d="M42.8349 54.6777C43.3154 55.8707 42.7117 57.0257 40.8719 56.5677L40.3994 55.8773" fill="black"/>
</g>
<path d="M51.3677 49.0277C51.558 48.8241 51.7829 48.646 52.0353 48.5184C52.2871 48.3904 52.5651 48.3146 52.8418 48.3021C53.3977 48.2776 53.9271 48.5027 54.2941 48.8688C54.6646 49.2361 54.8623 49.7447 54.8683 50.232C54.8729 50.476 54.8365 50.715 54.7688 50.9395C54.6993 51.1639 54.6014 51.3736 54.489 51.5718C54.5638 51.3555 54.6202 51.1349 54.6467 50.9131C54.6713 50.6912 54.6629 50.4692 54.62 50.2595C54.5361 49.8391 54.2963 49.4769 53.9755 49.2617C53.6546 49.0459 53.2647 48.9785 52.9312 49.0622C52.5953 49.1471 52.3275 49.3745 52.1426 49.6721L51.3677 49.0273V49.0277Z" fill="black"/>
<path d="M55.3872 51.9922C55.5262 51.7169 55.7147 51.4709 55.9343 51.2721C56.1538 51.0726 56.4025 50.9194 56.6614 50.8104C57.1803 50.5939 57.7403 50.5437 58.266 50.6549C58.5285 50.711 58.7832 50.8111 59.0079 50.9616C59.2323 51.1107 59.4251 51.312 59.5543 51.546C59.6851 51.7796 59.7497 52.041 59.7592 52.2959C59.7694 52.5517 59.7292 52.8007 59.6655 53.0385C59.6886 52.7925 59.6851 52.5456 59.6353 52.312C59.5865 52.0789 59.4886 51.8626 59.3473 51.6892C59.0647 51.3388 58.6291 51.1722 58.2005 51.1611C57.7705 51.147 57.3402 51.2716 56.9971 51.4949C56.6519 51.7178 56.4074 52.0415 56.3048 52.3949L55.3867 51.9918L55.3872 51.9922Z" fill="black"/>
<path d="M60.9946 53.0855C61.0164 52.7772 61.0956 52.4733 61.2249 52.2026C61.3536 51.9311 61.529 51.6932 61.7291 51.4949C62.1316 51.0981 62.6223 50.848 63.1297 50.7234C63.6352 50.6022 64.179 50.6024 64.6593 50.8083C64.8971 50.9109 65.1122 51.0705 65.2665 51.2747C65.4231 51.4779 65.5105 51.7214 65.5485 51.9631C65.4701 51.7309 65.3458 51.5171 65.1742 51.3607C65.0041 51.203 64.7963 51.1015 64.58 51.0505C64.1446 50.9492 63.6845 51.0332 63.2829 51.2094C62.8803 51.3871 62.5255 51.6669 62.2899 52.0028C62.0517 52.3392 61.9518 52.723 61.9935 53.0855H60.9944H60.9946Z" fill="black"/>
<path d="M66.553 51.1913C66.5193 50.7646 66.5271 50.3418 66.5928 49.918C66.6603 49.4981 66.7879 49.0649 67.0542 48.6994C67.1867 48.5188 67.3561 48.3613 67.5491 48.255C67.7422 48.1486 67.9516 48.0934 68.155 48.0757C68.5642 48.0442 68.9461 48.1434 69.304 48.2721C68.9277 48.2244 68.5413 48.2194 68.2012 48.3265C68.0327 48.381 67.8803 48.4636 67.758 48.5728C67.6357 48.6824 67.5449 48.8181 67.4798 48.9668C67.3501 49.2659 67.3202 49.6159 67.3408 49.9648C67.3623 50.3143 67.4332 50.6688 67.5353 51.0036L66.5533 51.1913H66.553Z" fill="black"/>
<path d="M58.4932 44.1617C58.7747 43.6792 59.1952 43.2827 59.6739 43.0525C60.1526 42.8208 60.6726 42.7407 61.168 42.7827C61.6625 42.826 62.1467 42.9894 62.5355 43.2936C62.7291 43.4443 62.8932 43.6374 62.9989 43.8573C63.1057 44.0768 63.149 44.321 63.1288 44.5537C63.1072 44.3204 63.0226 44.1011 62.8923 43.9236C62.7624 43.7452 62.5903 43.6061 62.4001 43.5078C62.0188 43.3099 61.581 43.2513 61.1682 43.2931C60.7546 43.3355 60.36 43.4831 60.0483 43.7159C59.7352 43.9497 59.515 44.2659 59.3886 44.6154L58.4936 44.1617H58.4932Z" fill="black"/>
<path d="M64.5311 43.6604C64.3732 43.4548 64.2375 43.2233 64.1465 42.97C64.055 42.7173 64.0111 42.4436 64.0239 42.1769C64.0359 41.91 64.1028 41.6526 64.2096 41.4236C64.3166 41.1944 64.4629 40.9933 64.6314 40.8235C64.9691 40.4842 65.399 40.2695 65.8397 40.1998C66.2813 40.1279 66.7281 40.2116 67.1015 40.4066C66.6961 40.2906 66.2705 40.3061 65.901 40.4475C65.5311 40.5864 65.2167 40.8428 65.0122 41.1545C64.8048 41.4647 64.718 41.8322 64.7731 42.1524C64.8246 42.4747 65.0078 42.7457 65.2595 42.9613L64.5313 43.6606L64.5311 43.6604Z" fill="black"/>
<path d="M67.5252 39.5393C67.0505 39.401 66.5956 39.1064 66.312 38.6822C66.0267 38.261 65.925 37.7367 66.0143 37.2689C66.1013 36.7982 66.3671 36.3964 66.7013 36.1268C66.8685 35.9906 67.051 35.8824 67.241 35.8002C67.4318 35.7192 67.628 35.6627 67.825 35.6216C67.64 35.7033 67.4631 35.7986 67.3012 35.9121C67.14 36.0267 66.9957 36.1609 66.8758 36.3097C66.6342 36.6064 66.5028 36.9718 66.5119 37.3188C66.5196 37.6668 66.668 37.9843 66.8915 38.1961C67.1174 38.4096 67.4129 38.517 67.7211 38.5376L67.5257 39.5393H67.5252Z" fill="black"/>
<g opacity="0.3">
<path d="M63.4818 11.1909C62.3179 7.8325 60.1025 5.05284 57.2618 3.17969C62.8421 9.31051 62.1161 22.1484 51.2855 23.3627C50.9225 23.4033 50.73 23.825 50.9421 24.1287C55.8374 31.1352 50.377 37.6784 42.835 38.0443C42.835 38.0443 44.438 38.847 46.8471 38.971L46.8455 38.9719C46.9028 38.9748 46.9577 38.976 47.0141 38.9785C47.0312 38.9791 47.048 38.9798 47.0654 38.9805C57.1026 39.3958 57.4305 32.5594 57.2813 30.3794C63.2773 27.2263 66.1034 18.7528 63.4818 11.1909Z" fill="black"/>
</g>
<g opacity="0.3">
<path d="M63.7149 35.4751C62.3982 42.2353 51.3032 38.3133 51.3032 38.3133C54.4428 38.0602 55.735 36.661 56.2423 35.7826C56.2457 35.7872 56.249 35.7917 56.2523 35.7963C58.5404 39.085 62.9788 37.9343 63.7149 35.4751Z" fill="black"/>
</g>
<g opacity="0.3">
<path d="M65.9506 42.2113C65.7086 42.4632 65.4555 42.7378 65.1902 43.0363C65.1868 43.0408 65.1824 43.0442 65.1791 43.0488C63.9868 44.3901 62.9055 44.9235 62.0262 45.0733C60.6096 45.3128 59.7148 44.5535 59.7148 44.5535C59.8103 44.5127 59.9036 44.4718 59.9946 44.4299L58.9399 44.389C59.5627 43.1066 61.0259 42.8127 62.0462 43.1883C65.1191 40.677 63.9601 37.3871 63.3795 36.1819C63.526 35.9617 63.6393 35.7257 63.7148 35.4749C63.7148 35.4737 63.7159 35.4715 63.7159 35.4703C63.788 35.2264 63.8247 34.9699 63.818 34.7032C63.8102 34.3253 63.717 33.927 63.5227 33.5184C63.153 32.8069 63.1053 32.0874 63.3961 31.655C63.6326 31.2998 64.0956 31.1376 64.7905 31.3271C64.8416 31.3407 64.8927 31.3566 64.9426 31.3736C65.4366 31.5416 65.8718 31.8593 66.2193 32.2599C68.7272 35.1515 68.3486 39.2709 65.9506 42.2113Z" fill="black"/>
</g>
<g opacity="0.3">
<path d="M61.7466 53.0764C59.0589 53.2024 56.4811 52.6577 54.4884 51.5716L52.4157 49.8864L51.7551 49.3496C52.8731 47.9458 54.9147 48.8809 54.747 50.6649C59.7383 51.8587 65.8964 50.6535 63.7149 45.0634C64.8151 44.766 65.9386 44.1044 67.0998 42.8436C67.3485 42.5735 67.6827 42.4419 68.0157 42.4419C68.3965 42.443 68.7762 42.6201 69.0193 42.9639C71.6171 46.6442 68.1456 52.6679 61.7466 53.0764Z" fill="black"/>
</g>
<g opacity="0.3">
<path d="M54.4884 51.571C54.0821 51.3497 53.7002 51.1058 53.346 50.8413C53.3449 50.8402 53.3438 50.8391 53.3427 50.8391C52.7099 50.266 52.2703 49.8597 52.1959 49.7893C52.1881 49.7837 52.1848 49.7803 52.1848 49.7803C52.1859 49.7814 52.1881 49.7814 52.1893 49.7825C52.2636 49.8177 52.3391 49.8518 52.4157 49.8858L54.4884 51.571Z" fill="black"/>
</g>
<g opacity="0.3">
<path d="M52.1182 52.367C51.7629 58.6835 43.9185 61.1461 40.9311 57.9561C40.7512 57.7427 40.6091 57.518 40.5048 57.2922C40.497 57.274 40.4937 57.2649 40.4937 57.2649C47.622 61.4411 50.3397 51.8121 45.8846 43.311L47.2035 43.6572C49.0508 45.1052 51.0669 46.9187 51.6997 49.1611L51.985 49.5356V49.5413C51.9883 49.5957 52.0116 50.0417 52.0449 50.709C52.066 51.1732 52.0927 51.7451 52.1182 52.367Z" fill="black"/>
</g>
<g opacity="0.3">
<path d="M38.9061 47.603L38.905 47.6041C38.7107 47.2852 38.421 47.0321 38.0724 46.9096C37.3641 46.6588 36.5215 46.9198 35.9409 47.9786C35.4768 48.8274 35.4046 49.8374 35.6988 50.751L35.6811 50.768C34.7485 49.0839 34.9639 46.5816 36.2684 43.9976C36.1729 44.0441 36.0785 44.0941 35.9864 44.1474C37.1543 43.2497 38.6252 43.8546 38.9061 47.603Z" fill="black"/>
</g>
<g opacity="0.3">
<path d="M27.981 54.5959C25.008 59.1227 19.0375 58.4157 16.5774 55.5242C16.7417 55.2541 16.8738 55.0861 16.8738 55.0861C21.5087 57.1719 26.197 55.2677 25.9938 49.2065C26.5245 51.4512 27.9455 53.856 27.9455 53.856C27.9455 53.856 27.9588 54.1465 27.981 54.5959Z" fill="black"/>
</g>
<g opacity="0.3">
<path d="M21.4609 41.2887L20.7216 45.4183C20.7216 45.4183 20.7171 45.424 20.7094 45.4342C20.5484 45.6215 20.3641 45.7917 20.1609 45.9426C17.1957 48.1646 10.175 46.5668 11.646 40.0778L11.6471 40.0767C15.0619 47.8401 20.5029 44.1587 21.4609 41.2887Z" fill="black"/>
</g>
<g opacity="0.3">
<path d="M40.6006 7.76097C41.6342 8.77097 40.1208 10.6189 38.1154 12.7635C36.11 14.9079 34.3721 16.5366 33.3385 15.5269C32.305 14.5169 33.0928 11.9596 35.0982 9.81524C37.1036 7.67086 39.567 6.75119 40.6006 7.76119V7.76097Z" fill="white"/>
</g>
<g opacity="0.3">
<path d="M43.3813 3.89513C44.4908 3.74624 45.4853 4.36586 45.6026 5.2794C45.7198 6.19272 44.8661 6.66912 43.7568 6.81801C42.6473 6.9669 41.7023 6.73199 41.5851 5.81868C41.4678 4.90536 42.2721 4.04425 43.3816 3.89536L43.3813 3.89513Z" fill="white"/>
</g>
<g opacity="0.3">
<path d="M29.4484 45.0206C29.8371 43.9547 30.7131 43.3047 31.4049 43.5684C32.0968 43.8322 31.5981 44.6261 31.2093 45.6919C30.8205 46.7578 30.6889 47.6915 29.997 47.4278C29.3052 47.1641 29.0594 46.0864 29.4481 45.0206H29.4484Z" fill="white"/>
</g>
<g opacity="0.3">
<path d="M31.6091 42.6254C31.3924 42.316 31.5305 41.8355 31.9175 41.5523C32.3045 41.269 32.7941 41.2904 33.0108 41.5997C33.2275 41.9091 32.9815 42.2355 32.5945 42.5187C32.2075 42.802 31.8258 42.9347 31.6091 42.6254Z" fill="white"/>
</g>
<path d="M12.8086 66.9238C12.6654 66.9303 12.5221 66.9385 12.3789 66.9482C12.2389 66.958 12.1022 66.9743 11.9688 66.9971C11.627 67.0654 11.3161 67.2282 11.0361 67.4854C10.7594 67.7393 10.6585 68.055 10.7334 68.4326C10.7692 68.6051 10.8506 68.7402 10.9775 68.8379C11.1794 68.9974 11.4479 69.0739 11.7832 69.0674C12.1185 69.0576 12.4082 69.0251 12.6523 68.9697C12.7891 68.9242 12.9225 68.9307 13.0527 68.9893C13.1732 69.0479 13.2822 69.1488 13.3799 69.292C13.5329 69.5264 13.637 69.8389 13.6924 70.2295C13.751 70.6201 13.7298 70.9424 13.6289 71.1963C13.5475 71.4046 13.4238 71.5283 13.2578 71.5674C12.724 71.7627 12.1364 71.8587 11.4951 71.8555C10.8538 71.849 10.2793 71.7301 9.77148 71.499C9.08464 71.1898 8.55892 70.734 8.19434 70.1318C7.82975 69.5296 7.6849 68.8428 7.75977 68.0713C7.88672 66.8506 8.37012 65.8968 9.20996 65.21C10.0498 64.5231 11.0947 64.2464 12.3447 64.3799C12.5531 64.4027 12.737 64.5117 12.8965 64.707C13.0527 64.9023 13.1813 65.2425 13.2822 65.7275C13.3864 66.2126 13.3262 66.5674 13.1016 66.792C13.0169 66.8766 12.9193 66.9206 12.8086 66.9238ZM18.8779 64.7852C18.8812 64.6973 19.013 64.6289 19.2734 64.5801C19.5339 64.528 19.8219 64.502 20.1377 64.502C20.4567 64.4987 20.7546 64.5231 21.0312 64.5752C21.3112 64.6273 21.4756 64.7119 21.5244 64.8291C21.5928 65.0016 21.64 65.3011 21.666 65.7275C21.6953 66.154 21.7002 66.6178 21.6807 67.1191C21.6644 67.6204 21.6204 68.112 21.5488 68.5938C21.4805 69.0755 21.3828 69.4564 21.2559 69.7363C20.9824 70.3353 20.582 70.8236 20.0547 71.2012C19.5306 71.5788 18.93 71.7936 18.2529 71.8457C17.4001 71.9043 16.6058 71.696 15.8701 71.2207C15.1344 70.7422 14.625 70.1074 14.3418 69.3164C14.2474 69.0592 14.179 68.6898 14.1367 68.208C14.0977 67.7262 14.0798 67.238 14.083 66.7432C14.0863 66.2484 14.1156 65.7992 14.1709 65.3955C14.2262 64.9886 14.3076 64.7314 14.415 64.624C14.5062 64.5361 14.6966 64.4775 14.9863 64.4482C15.276 64.4189 15.5755 64.4124 15.8848 64.4287C16.1973 64.445 16.474 64.4824 16.7148 64.541C16.959 64.5964 17.0811 64.668 17.0811 64.7559C17.0745 65.0098 17.0534 65.3662 17.0176 65.8252C16.9818 66.2809 16.972 66.7367 16.9883 67.1924C17.0078 67.6449 17.0762 68.0452 17.1934 68.3936C17.3138 68.7386 17.527 68.9274 17.833 68.96C18.165 68.999 18.4027 68.8477 18.5459 68.5059C18.6924 68.1608 18.7868 67.7523 18.8291 67.2803C18.8747 66.805 18.8893 66.3281 18.873 65.8496C18.86 65.3711 18.8617 65.0163 18.8779 64.7852ZM25.6309 66.7773C25.5625 66.7839 25.5007 66.766 25.4453 66.7236C25.377 66.6748 25.3411 66.6211 25.3379 66.5625C25.3379 66.5039 25.3053 66.4486 25.2402 66.3965C25.0775 66.2695 24.8708 66.2923 24.6201 66.4648C24.3695 66.6374 24.4736 66.7708 24.9326 66.8652C24.9814 66.875 25.0352 66.8864 25.0938 66.8994C25.1523 66.9092 25.2126 66.9189 25.2744 66.9287C26.0231 67.0589 26.6139 67.2819 27.0469 67.5977C27.5807 67.9883 27.8867 68.4993 27.9648 69.1309C28.0462 69.7591 27.8721 70.3223 27.4424 70.8203C26.9346 71.4095 26.2461 71.748 25.377 71.8359C24.5111 71.9206 23.7624 71.7383 23.1309 71.2891C22.5872 70.9082 22.2471 70.4281 22.1104 69.8486C22.0518 69.5752 22.1885 69.3636 22.5205 69.2139C22.667 69.1455 22.8281 69.0967 23.0039 69.0674C23.1829 69.0381 23.3538 69.0218 23.5166 69.0186C23.7835 69.0186 24.0244 69.0511 24.2393 69.1162C24.4541 69.1781 24.5762 69.2676 24.6055 69.3848C24.6087 69.4076 24.6169 69.4303 24.6299 69.4531C24.6657 69.5345 24.734 69.5947 24.835 69.6338C24.9554 69.6826 25.0954 69.6761 25.2549 69.6143C25.4176 69.5492 25.4648 69.4401 25.3965 69.2871C25.3607 69.2155 25.263 69.1569 25.1035 69.1113C24.7227 69.0007 24.3434 68.9176 23.9658 68.8623C23.5882 68.8037 23.2301 68.6491 22.8916 68.3984C22.6475 68.2227 22.4554 67.9818 22.3154 67.6758C22.1787 67.3698 22.1331 66.9645 22.1787 66.46C22.2438 65.7796 22.571 65.2197 23.1602 64.7803C23.5052 64.5231 23.8991 64.3522 24.3418 64.2676C24.7845 64.1797 25.2142 64.1797 25.6309 64.2676C26.0475 64.3522 26.4219 64.5247 26.7539 64.7852C27.0892 65.0423 27.3203 65.3857 27.4473 65.8154C27.4961 65.9814 27.4489 66.1247 27.3057 66.2451C27.1657 66.3623 26.9899 66.46 26.7783 66.5381C26.5667 66.6162 26.3503 66.6748 26.1289 66.7139C25.9076 66.7529 25.7415 66.7741 25.6309 66.7773ZM33.4043 71.6162C33.3685 71.6813 33.2497 71.7334 33.0479 71.7725C32.846 71.8115 32.6182 71.8359 32.3643 71.8457C32.1136 71.8555 31.8646 71.8506 31.6172 71.8311C31.3698 71.8115 31.1826 71.7741 31.0557 71.7188C30.9222 71.6602 30.8018 71.1816 30.6943 70.2832C30.5902 69.3815 30.5104 68.4701 30.4551 67.5488C29.9733 67.5391 29.5583 67.5146 29.21 67.4756C28.8617 67.4333 28.6696 67.373 28.6338 67.2949C28.5719 67.1712 28.5199 66.9727 28.4775 66.6992C28.4352 66.4225 28.4076 66.141 28.3945 65.8545C28.3815 65.5648 28.3831 65.3044 28.3994 65.0732C28.4189 64.8389 28.4613 64.7038 28.5264 64.668C28.6208 64.5931 28.9398 64.5329 29.4834 64.4873C30.027 64.4417 30.652 64.4108 31.3584 64.3945C32.0648 64.375 32.7826 64.3701 33.5117 64.3799C34.2409 64.3864 34.8398 64.4043 35.3086 64.4336C35.4941 64.4466 35.6211 64.6061 35.6895 64.9121C35.7578 65.2181 35.7822 65.5534 35.7627 65.918C35.7432 66.2826 35.6862 66.6178 35.5918 66.9238C35.5007 67.2298 35.3883 67.3877 35.2549 67.3975C35.1312 67.417 34.9326 67.4365 34.6592 67.4561C34.3857 67.4723 34.0781 67.487 33.7363 67.5C33.7266 68.418 33.6924 69.3034 33.6338 70.1562C33.5752 71.0059 33.4987 71.4925 33.4043 71.6162ZM43.624 68.6475C43.4548 69.6729 42.9567 70.4997 42.1299 71.1279C41.3063 71.7562 40.3477 71.9792 39.2539 71.7969C38.1992 71.6211 37.3691 71.1182 36.7637 70.2881C36.1582 69.458 35.9368 68.5384 36.0996 67.5293C36.2526 66.5918 36.7051 65.8057 37.457 65.1709C38.2122 64.5329 39.0895 64.2578 40.0889 64.3457C41.2933 64.4499 42.2292 64.9072 42.8965 65.7178C43.5671 66.5283 43.8096 67.5049 43.624 68.6475ZM40.8213 68.2324C40.8669 67.9525 40.8132 67.7148 40.6602 67.5195C40.5104 67.321 40.2907 67.1973 40.001 67.1484C39.7275 67.1029 39.4867 67.1631 39.2783 67.3291C39.07 67.4919 38.9463 67.6986 38.9072 67.9492C38.8551 68.252 38.9398 68.5205 39.1611 68.7549C39.3825 68.986 39.6559 69.082 39.9814 69.043C40.2061 69.0202 40.3932 68.9323 40.543 68.7793C40.6927 68.6263 40.7855 68.444 40.8213 68.2324ZM48.9072 67.0117C49.2295 66.5332 49.5404 66.0758 49.8398 65.6396C50.1426 65.2035 50.4095 64.8747 50.6406 64.6533C50.7415 64.5557 50.9385 64.484 51.2314 64.4385C51.5244 64.3929 51.8288 64.3717 52.1445 64.375C52.4635 64.3783 52.7516 64.4027 53.0088 64.4482C53.2692 64.4938 53.4189 64.5573 53.458 64.6387C53.5199 64.7819 53.5687 65.2051 53.6045 65.9082C53.6403 66.6081 53.6582 67.3649 53.6582 68.1787C53.6582 68.9925 53.6387 69.7477 53.5996 70.4443C53.5605 71.1377 53.4971 71.5479 53.4092 71.6748C53.3408 71.7529 53.0088 71.8034 52.4131 71.8262C51.8174 71.8457 51.3991 71.8311 51.1582 71.7822C51.0605 71.7627 50.971 71.4811 50.8896 70.9375C50.8083 70.3939 50.7529 69.8438 50.7236 69.2871C50.6585 69.3555 50.5413 69.4775 50.3721 69.6533C50.2061 69.8291 50.027 70.0098 49.835 70.1953C49.6429 70.3809 49.4574 70.5452 49.2783 70.6885C49.1025 70.8317 48.9723 70.9033 48.8877 70.9033C48.8031 70.9033 48.6745 70.835 48.502 70.6982C48.3327 70.5615 48.1553 70.4053 47.9697 70.2295C47.7874 70.0505 47.6149 69.8763 47.4521 69.707C47.2926 69.5378 47.182 69.4206 47.1201 69.3555C47.0811 69.8763 47.0225 70.4036 46.9443 70.9375C46.8662 71.4714 46.7816 71.7529 46.6904 71.7822C46.57 71.818 46.391 71.8392 46.1533 71.8457C45.9157 71.8522 45.6748 71.8506 45.4307 71.8408C45.1865 71.8311 44.9668 71.8115 44.7715 71.7822C44.5794 71.7497 44.4704 71.7139 44.4443 71.6748C44.3564 71.5511 44.2897 71.1344 44.2441 70.4248C44.1986 69.7152 44.1742 68.9502 44.1709 68.1299C44.1676 67.3063 44.1807 66.5446 44.21 65.8447C44.2393 65.1416 44.2881 64.7363 44.3564 64.6289C44.4053 64.5508 44.5599 64.4889 44.8203 64.4434C45.0807 64.3978 45.3672 64.375 45.6797 64.375C45.9922 64.3717 46.2917 64.3929 46.5781 64.4385C46.8678 64.484 47.0648 64.5557 47.1689 64.6533C47.3968 64.8747 47.6637 65.2035 47.9697 65.6396C48.279 66.0758 48.5915 66.5332 48.9072 67.0117ZM59.835 71.6113C59.7666 71.7415 59.4264 71.8197 58.8145 71.8457C58.2025 71.8685 57.7695 71.8262 57.5156 71.7188C57.4017 71.6699 57.2943 71.3346 57.1934 70.7129C57.0924 70.0911 57.0062 69.3929 56.9346 68.6182C56.863 67.8434 56.8109 67.098 56.7783 66.3818C56.7458 65.6624 56.7441 65.1823 56.7734 64.9414C56.7962 64.7428 56.9785 64.5931 57.3203 64.4922C57.6654 64.388 58.0413 64.3311 58.4482 64.3213C58.8584 64.3083 59.2327 64.3408 59.5713 64.4189C59.9131 64.4971 60.0938 64.6191 60.1133 64.7852C60.1654 65.2539 60.193 65.8545 60.1963 66.5869C60.2028 67.3193 60.1914 68.042 60.1621 68.7549C60.1328 69.4678 60.0889 70.0977 60.0303 70.6445C59.9717 71.1914 59.9066 71.5137 59.835 71.6113ZM67.7451 71.6113C67.7061 71.6895 67.5889 71.7464 67.3936 71.7822C67.1982 71.818 66.9818 71.8392 66.7441 71.8457C66.5098 71.8522 66.2835 71.8457 66.0654 71.8262C65.8506 71.8066 65.7041 71.779 65.626 71.7432C65.5153 71.6943 65.3542 71.5658 65.1426 71.3574C64.931 71.1458 64.7145 70.918 64.4932 70.6738C64.2718 70.4264 64.07 70.1937 63.8877 69.9756C63.7054 69.7575 63.5898 69.6143 63.541 69.5459C63.4922 70.1253 63.4417 70.6234 63.3896 71.04C63.3376 71.4535 63.2708 71.6797 63.1895 71.7188C62.9486 71.8294 62.5335 71.8717 61.9443 71.8457C61.3584 71.8197 61.0345 71.7415 60.9727 71.6113C60.901 71.5137 60.8392 71.1865 60.7871 70.6299C60.7383 70.0732 60.7041 69.4336 60.6846 68.7109C60.6683 67.9883 60.6699 67.2559 60.6895 66.5137C60.709 65.7715 60.7562 65.166 60.8311 64.6973C60.8441 64.6029 60.958 64.5312 61.1729 64.4824C61.391 64.4303 61.64 64.401 61.9199 64.3945C62.2031 64.3848 62.4863 64.3962 62.7695 64.4287C63.056 64.4613 63.2757 64.5101 63.4287 64.5752C63.6533 64.6761 63.9333 64.9447 64.2686 65.3809C64.6071 65.8171 64.8529 66.1475 65.0059 66.3721C64.9961 66.0238 64.9847 65.7161 64.9717 65.4492C64.9619 65.179 64.9635 64.9805 64.9766 64.8535C64.9831 64.6973 65.1328 64.5785 65.4258 64.4971C65.7188 64.4157 66.0394 64.3701 66.3877 64.3604C66.7393 64.3473 67.0615 64.3701 67.3545 64.4287C67.6507 64.4873 67.807 64.5768 67.8232 64.6973C67.8721 65.1758 67.9014 65.7878 67.9111 66.5332C67.9242 67.2786 67.9242 68.0127 67.9111 68.7354C67.9014 69.458 67.8802 70.096 67.8477 70.6494C67.8151 71.1995 67.7809 71.5202 67.7451 71.6113ZM74.7422 66.2061C74.752 66.333 74.5924 66.5918 74.2637 66.9824C73.9349 67.373 73.5524 67.793 73.1162 68.2422C73.8096 68.6003 74.363 68.9209 74.7764 69.2041C74.8805 69.279 74.9049 69.4645 74.8496 69.7607C74.7975 70.057 74.7031 70.3646 74.5664 70.6836C74.4297 71.0026 74.2686 71.2826 74.083 71.5234C73.9007 71.7643 73.7331 71.8701 73.5801 71.8408C73.4141 71.805 73.1211 71.6862 72.7012 71.4844C72.2812 71.2826 71.8353 71.0579 71.3633 70.8105C71.3047 71.25 71.2428 71.512 71.1777 71.5967C71.1029 71.7269 70.7611 71.8083 70.1523 71.8408C69.5469 71.8734 69.1204 71.8359 68.873 71.7285C68.7624 71.6797 68.6647 71.3444 68.5801 70.7227C68.4987 70.0977 68.4336 69.3962 68.3848 68.6182C68.3392 67.8402 68.3115 67.0915 68.3018 66.3721C68.292 65.6527 68.3034 65.1709 68.3359 64.9268C68.362 64.7738 68.5378 64.6549 68.8633 64.5703C69.1921 64.4824 69.5485 64.4303 69.9326 64.4141C70.3167 64.3978 70.6683 64.4157 70.9873 64.4678C71.3096 64.5199 71.4788 64.6077 71.4951 64.7314C71.5081 64.8682 71.5195 65.0114 71.5293 65.1611C71.5423 65.3076 71.5521 65.472 71.5586 65.6543C71.9395 65.3353 72.2861 65.0781 72.5986 64.8828C72.9144 64.6875 73.1211 64.6094 73.2188 64.6484C73.4727 64.7656 73.7917 65.0228 74.1758 65.4199C74.5632 65.8171 74.752 66.0791 74.7422 66.2061Z" fill="black"/>
</svg>
