<svg width="34" height="31" viewBox="0 0 34 31" fill="none" xmlns="http://www.w3.org/2000/svg">
<path d="M11.125 28.4168C11.8844 28.4168 12.5 27.8385 12.5 27.1252C12.5 26.4118 11.8844 25.8335 11.125 25.8335C10.3656 25.8335 9.75 26.4118 9.75 27.1252C9.75 27.8385 10.3656 28.4168 11.125 28.4168Z" stroke="#2C3333" stroke-width="2.13636" stroke-linecap="round" stroke-linejoin="round"/>
<path d="M26.25 28.4168C27.0094 28.4168 27.625 27.8385 27.625 27.1252C27.625 26.4118 27.0094 25.8335 26.25 25.8335C25.4906 25.8335 24.875 26.4118 24.875 27.1252C24.875 27.8385 25.4906 28.4168 26.25 28.4168Z" stroke="#2C3333" stroke-width="2.13636" stroke-linecap="round" stroke-linejoin="round"/>
<path d="M2.94385 2.64795H5.69385L9.35135 18.6904C9.48552 19.278 9.83352 19.8032 10.3355 20.1757C10.8374 20.5482 11.4618 20.7446 12.1013 20.7313H25.5488C26.1747 20.7303 26.7815 20.5289 27.269 20.1602C27.7565 19.7914 28.0955 19.2776 28.2301 18.7034L30.4988 9.10628H7.1651" stroke="#2C3333" stroke-width="2.13636" stroke-linecap="round" stroke-linejoin="round"/>
</svg>
