<svg width="1440" height="761" viewBox="0 0 1440 761" fill="none" xmlns="http://www.w3.org/2000/svg">
<g clip-path="url(#clip0_238_803)">
<rect width="1440" height="761" fill="white"/>
<path d="M456.386 652.719L389.439 683.836" stroke="#AFAFAF" stroke-width="24"/>
<path d="M438.47 701.751L407.354 634.804" stroke="#AFAFAF" stroke-width="24"/>
<path d="M464.894 653.256L397.946 684.372" stroke="#01A1AD" stroke-width="24"/>
<path d="M446.978 702.288L415.862 635.34" stroke="#01A1AD" stroke-width="24"/>
<path d="M1326.44 97.3667L1367.79 123.988" stroke="#AFAFAF" stroke-width="21"/>
<path d="M1360.42 90L1333.8 131.354" stroke="#AFAFAF" stroke-width="21"/>
<path d="M1326.44 90.3667L1367.79 116.988" stroke="#01A1AD" stroke-width="21"/>
<path d="M1360.42 83L1333.8 124.354" stroke="#01A1AD" stroke-width="21"/>
<path d="M74.908 658.569L107.784 668.003" stroke="#AFAFAF" stroke-width="13.3752"/>
<path d="M96.0627 646.848L86.6291 679.724" stroke="#AFAFAF" stroke-width="13.3752"/>
<path d="M73 654.753L105.876 664.187" stroke="#01A1AD" stroke-width="13.3752"/>
<path d="M94.1548 643.032L84.7212 675.908" stroke="#01A1AD" stroke-width="13.3752"/>
<path d="M93.6523 332.92L125.709 402.282" stroke="#AFAFAF" stroke-width="29.5553"/>
<path d="M144.362 351.573L75.0002 383.629" stroke="#AFAFAF" stroke-width="29.5553"/>
<path d="M102.414 330L134.47 399.361" stroke="#01A1AD" stroke-width="29.5553"/>
<path d="M153.123 348.652L83.7612 380.709" stroke="#01A1AD" stroke-width="29.5553"/>
<path d="M144.746 140.463L210.583 107.063" stroke="#AFAFAF" stroke-width="24"/>
<path d="M160.965 90.8439L194.364 156.681" stroke="#AFAFAF" stroke-width="24"/>
<path d="M136.225 140.219L202.062 106.819" stroke="#01A1AD" stroke-width="24"/>
<path d="M152.444 90.6001L185.843 156.438" stroke="#01A1AD" stroke-width="24"/>
<path d="M1286.75 407.463L1352.58 374.063" stroke="#AFAFAF" stroke-width="24"/>
<path d="M1302.96 357.844L1336.36 423.681" stroke="#AFAFAF" stroke-width="24"/>
<path d="M1278.23 407.219L1344.06 373.819" stroke="#01A1AD" stroke-width="24"/>
<path d="M1294.44 357.6L1327.84 423.438" stroke="#01A1AD" stroke-width="24"/>
<path d="M869.746 672.463L935.584 639.063" stroke="#AFAFAF" stroke-width="24"/>
<path d="M885.965 622.844L919.365 688.681" stroke="#AFAFAF" stroke-width="24"/>
<path d="M861.225 672.219L927.063 638.819" stroke="#01A1AD" stroke-width="24"/>
<path d="M877.444 622.6L910.844 688.438" stroke="#01A1AD" stroke-width="24"/>
<path d="M662.584 540.208L629.403 531.91" stroke="#AFAFAF" stroke-width="13.3752"/>
<path d="M641.845 552.65L650.142 519.469" stroke="#AFAFAF" stroke-width="13.3752"/>
<path d="M664.622 543.956L631.441 535.659" stroke="#01A1AD" stroke-width="13.3752"/>
<path d="M643.883 556.398L652.18 523.217" stroke="#01A1AD" stroke-width="13.3752"/>
<path d="M1095.58 348.208L1062.4 339.91" stroke="#AFAFAF" stroke-width="13.3752"/>
<path d="M1074.84 360.65L1083.14 327.469" stroke="#AFAFAF" stroke-width="13.3752"/>
<path d="M1097.62 351.956L1064.44 343.659" stroke="#01A1AD" stroke-width="13.3752"/>
<path d="M1076.88 364.398L1085.18 331.217" stroke="#01A1AD" stroke-width="13.3752"/>
<path d="M1128.58 95.2079L1095.4 86.9104" stroke="#AFAFAF" stroke-width="13.3752"/>
<path d="M1107.84 107.65L1116.14 74.4686" stroke="#AFAFAF" stroke-width="13.3752"/>
<path d="M1130.62 98.9561L1097.44 90.6586" stroke="#01A1AD" stroke-width="13.3752"/>
<path d="M1109.88 111.398L1118.18 78.2167" stroke="#01A1AD" stroke-width="13.3752"/>
<path d="M1306.82 691.962L1272.4 623.744" stroke="#AFAFAF" stroke-width="29.5553"/>
<path d="M1255.5 675.064L1323.72 640.641" stroke="#AFAFAF" stroke-width="29.5553"/>
<path d="M1298.16 695.182L1263.74 626.964" stroke="#01A1AD" stroke-width="29.5553"/>
<path d="M1246.84 678.284L1315.06 643.861" stroke="#01A1AD" stroke-width="29.5553"/>
<path d="M722.82 122.962L688.397 54.7439" stroke="#AFAFAF" stroke-width="29.5553"/>
<path d="M671.5 106.064L739.717 71.6413" stroke="#AFAFAF" stroke-width="29.5553"/>
<path d="M714.165 126.182L679.741 57.9639" stroke="#01A1AD" stroke-width="29.5553"/>
<path d="M662.844 109.284L731.062 74.8613" stroke="#01A1AD" stroke-width="29.5553"/>
</g>
<defs>
<clipPath id="clip0_238_803">
<rect width="1440" height="761" fill="white"/>
</clipPath>
</defs>
</svg>
